<svg xmlns="http://www.w3.org/2000/svg" xmlns:xlink="http://www.w3.org/1999/xlink" width="" height="" viewBox="0 0 1920 1080"><defs><radialGradient id="a" cx="0.52" cy="0.343" r="0.385" gradientTransform="matrix(0.644, 0.765, -0.641, 0.54, 0.405, -0.24)" gradientUnits="objectBoundingBox"><stop offset="0" stop-color="#a298ff"/><stop offset="1" stop-color="#2508a3"/></radialGradient><linearGradient id="b" x1="0.5" y1="0.176" x2="0.5" y2="0.84" gradientUnits="objectBoundingBox"><stop offset="0" stop-color="#9b9dff"/><stop offset="1" stop-color="#2508a3"/></linearGradient><linearGradient id="c" y1="0.172" y2="0.836" xlink:href="#b"/><linearGradient id="d" x1="-0.03" y1="0.285" x2="1.162" y2="1.078" xlink:href="#b"/><linearGradient id="g" x1="-0.03" y1="0.285" x2="0.722" y2="0.757" xlink:href="#b"/><linearGradient id="p" x1="-0.03" y1="0.285" x2="0.604" y2="0.698" xlink:href="#b"/><clipPath id="r"><rect width="1920" height="1080"/></clipPath></defs><g id="q" clip-path="url(#r)"><rect width="1920" height="1080" fill="url(#a)"/><path d="M81.349-313.982,1672.617,479.494V902.685L473.06,779.742l-642.778-315.4Z" transform="translate(163 301.268)" fill="#fcfcfc" opacity="0.041"/><path d="M78.4-313.982,1651,479.494V902.685L465.518,779.742l-635.236-315.4Z" transform="translate(-116 455.268)" fill="#fcfcfc" opacity="0.094"/><g transform="translate(-119 75)"><path d="M0,0,300,150V449L0,300Z" transform="translate(1054 556)" fill="url(#b)"/><path d="M300,0,0,150V449L300,300Z" transform="translate(1354 556)" fill="url(#c)"/><path d="M293.67-5.126-11.7,133.62-83.923,461.162,221.445,322.416Z" transform="translate(1242.796 780.998) rotate(-129)" fill="url(#d)"/></g><g transform="translate(181 -374)"><path d="M0,0,300,150V449L0,300Z" transform="translate(1054 556)" fill="url(#b)"/><path d="M300,0,0,150V449L300,300Z" transform="translate(1354 556)" fill="url(#c)"/><path d="M293.67-5.126-11.7,133.62-83.923,461.162,221.445,322.416Z" transform="translate(1242.796 780.998) rotate(-129)" fill="url(#g)"/></g><g transform="translate(-719 75)"><path d="M0,0,300,150V449L0,300Z" transform="translate(1054 556)" fill="url(#b)"/><path d="M300,0,0,150V449L300,300Z" transform="translate(1354 556)" fill="url(#c)"/><path d="M293.67-5.126-11.7,133.62-83.923,461.162,221.445,322.416Z" transform="translate(1242.796 780.998) rotate(-129)" fill="url(#d)"/></g><g transform="translate(481 75)"><path d="M0,0,300,150V449L0,300Z" transform="translate(1054 556)" fill="url(#b)"/><path d="M300,0,0,150V449L300,300Z" transform="translate(1354 556)" fill="url(#c)"/><path d="M293.67-5.126-11.7,133.62-83.923,461.162,221.445,322.416Z" transform="translate(1242.796 780.998) rotate(-129)" fill="url(#d)"/></g><g transform="translate(781 -374)"><path d="M0,0,300,150V449L0,300Z" transform="translate(1054 556)" fill="url(#b)"/><path d="M300,0,0,150V449L300,300Z" transform="translate(1354 556)" fill="url(#c)"/><path d="M293.67-5.126-11.7,133.62-83.923,461.162,221.445,322.416Z" transform="translate(1242.796 780.998) rotate(-129)" fill="url(#p)"/></g></g></svg>